<?xml version="1.0" standalone="no"?>
<!DOCTYPE svg PUBLIC "-//W3C//DTD SVG 20010904//EN"
 "http://www.w3.org/TR/2001/REC-SVG-20010904/DTD/svg10.dtd">
<svg version="1.0" xmlns="http://www.w3.org/2000/svg"
 width="1024.000000pt" height="1536.000000pt" viewBox="0 0 1024.000000 1536.000000"
 preserveAspectRatio="xMidYMid meet">

<g transform="translate(0.000000,1536.000000) scale(0.100000,-0.100000)"
fill="#000000" stroke="none">
<path d="M2015 9491 c-236 -65 -572 -157 -745 -203 l-315 -86 0 -963 c0 -896
1 -970 18 -1049 63 -290 190 -514 398 -700 94 -85 212 -167 380 -266 60 -35
160 -94 222 -131 61 -36 168 -99 237 -138 69 -40 156 -91 195 -114 38 -22 74
-41 80 -41 12 0 63 29 470 270 171 100 355 212 410 248 373 242 576 530 629
893 14 91 16 246 16 1052 l0 945 -32 7 c-18 4 -139 36 -268 70 -1238 334
-1203 325 -1236 324 -16 0 -222 -54 -459 -118z m567 -60 c57 -16 213 -60 348
-97 135 -37 250 -71 256 -75 6 -5 16 -93 23 -211 6 -112 14 -212 16 -224 4
-19 -1 -22 -58 -27 -34 -4 -72 -10 -85 -13 -19 -5 -56 27 -251 220 -268 264
-293 280 -212 132 22 -39 96 -156 164 -260 l125 -189 -44 -56 c-24 -31 -44
-62 -44 -68 0 -17 -2 -17 -84 11 -179 62 -306 90 -306 68 0 -7 172 -124 303
-206 46 -29 57 -41 51 -54 -6 -14 -41 -132 -49 -168 -2 -5 -52 -20 -111 -33
-131 -26 -174 -39 -174 -52 0 -5 3 -9 8 -9 12 0 234 -29 269 -35 29 -5 33 -12
59 -83 15 -42 31 -82 36 -88 5 -7 7 -41 6 -77 -3 -59 0 -68 24 -94 25 -27 27
-34 33 -173 8 -170 18 -192 108 -254 53 -37 55 -39 45 -69 -5 -18 -15 -52 -21
-77 l-12 -45 -80 -6 c-127 -9 -169 -36 -366 -236 -91 -92 -181 -190 -201 -218
-100 -142 -172 -310 -185 -434 -3 -34 -9 -63 -12 -66 -7 -4 -41 16 -281 163
-313 192 -488 334 -579 470 l-42 62 566 0 566 0 59 126 c33 70 60 127 60 128
0 0 -305 1 -677 1 l-677 0 -13 44 c-7 25 -16 73 -19 108 l-7 63 697 0 696 0 0
130 0 130 -695 0 -695 0 0 115 0 115 695 0 696 0 -3 123 -3 122 -692 3 -693 2
0 505 c0 396 3 507 13 510 6 2 172 47 367 100 195 54 492 137 660 185 168 48
308 88 312 89 4 0 54 -12 110 -28z m946 -261 c83 -23 152 -46 152 -50 0 -10
-138 -371 -144 -377 -2 -2 -12 1 -23 6 -10 6 -36 17 -58 25 -39 12 -41 15 -58
82 -36 148 -84 364 -80 368 3 2 17 1 31 -4 15 -5 96 -27 180 -50z m325 -87 c4
-2 7 -60 7 -129 0 -122 -1 -129 -45 -255 -24 -71 -47 -134 -50 -139 -7 -12
-95 74 -95 93 0 9 25 103 56 209 31 106 59 203 61 215 4 19 10 22 32 17 14 -4
29 -9 34 -11z m-551 -392 c130 -22 279 -109 384 -226 70 -77 135 -195 108
-195 -10 0 -14 6 -10 15 3 8 2 15 -3 15 -4 0 -21 20 -37 45 -26 41 -44 57 -44
38 0 -5 -10 -23 -21 -42 -18 -31 -22 -33 -31 -18 -6 12 -4 31 8 63 l18 46 -43
41 c-47 44 -49 44 -78 -25 -8 -21 -19 -38 -24 -38 -14 0 -11 38 7 71 20 40 14
54 -35 78 l-40 21 -16 -49 c-29 -88 -67 -92 -40 -5 20 66 19 73 -12 86 -58 23
-66 18 -80 -50 -12 -62 -27 -53 -33 20 l-5 63 -41 3 c-41 3 -41 2 -47 -35 -4
-21 -7 -53 -7 -70 0 -18 -5 -33 -10 -33 -16 0 -24 26 -29 95 -3 40 -15 48 -53
32 l-34 -14 4 -62 c3 -35 0 -61 -5 -61 -10 0 -33 65 -33 94 0 20 -27 21 -47 1
-11 -12 -13 -27 -8 -65 6 -42 4 -50 -9 -50 -8 0 -20 9 -26 20 -6 11 -15 18
-20 15 -18 -11 -1 46 24 79 60 80 219 121 368 97z m7 -276 c53 -17 100 -41
140 -71 34 -25 61 -47 61 -49 0 -2 -20 -20 -44 -40 l-44 -36 -84 15 c-146 25
-232 69 -275 141 -11 19 -15 16 -67 -40 -29 -33 -76 -95 -103 -137 -26 -42
-54 -77 -62 -78 -21 0 -9 116 17 165 69 135 267 191 461 130z m-114 -208 c61
-24 118 -48 129 -51 17 -6 18 -8 2 -24 -9 -10 -16 -26 -16 -35 0 -21 -14 -21
-45 -1 -13 9 -51 18 -85 21 -52 5 -64 3 -94 -18 -45 -31 -71 -78 -91 -166 -15
-65 -45 -123 -64 -123 -3 0 -14 13 -23 28 -15 24 -15 32 -4 48 8 10 18 36 24
56 9 32 7 41 -9 62 -18 22 -18 28 -6 65 8 22 40 74 72 116 67 89 50 87 210 22z
m634 16 c13 -47 13 -53 1 -53 -5 0 -10 9 -10 20 0 11 -4 20 -10 20 -5 0 -10
11 -10 25 0 38 18 30 29 -12z m-214 -9 c28 -18 33 -42 10 -50 -22 -9 -18 -24
14 -59 16 -16 52 -67 80 -112 45 -74 48 -84 35 -98 -9 -8 -21 -15 -27 -15 -24
1 -248 252 -247 277 1 6 96 71 108 73 1 0 14 -7 27 -16z m-274 -239 c16 -9 29
-20 29 -24 0 -23 -15 -42 -45 -61 -37 -23 -35 -18 -69 -224 -24 -146 -34 -162
-115 -185 -91 -27 -136 -34 -166 -27 -20 5 -25 13 -25 39 0 30 2 32 41 35 88
6 105 44 24 52 -36 4 -50 10 -55 25 -11 30 -4 35 50 35 79 0 110 22 48 34 -18
4 -42 14 -53 22 -20 16 -20 16 5 32 13 10 36 27 50 40 25 22 25 22 5 40 -24
22 -45 57 -45 76 0 18 59 70 113 98 51 27 146 39 165 20 8 -7 27 -19 43 -27z
m449 -175 c0 -21 -28 -75 -46 -91 -11 -9 -32 -19 -47 -23 -15 -4 -25 -11 -22
-16 3 -6 -1 -7 -9 -4 -9 3 -16 11 -16 18 0 6 -3 20 -6 31 -4 17 5 24 61 44 36
14 65 31 65 38 0 7 5 13 10 13 6 0 10 -5 10 -10z m78 -210 l-3 -65 -32 2 c-30
3 -31 1 -28 -30 1 -17 15 -67 30 -109 27 -77 27 -78 12 -141 -22 -85 -44 -136
-51 -117 -18 49 -59 205 -68 261 l-12 67 56 113 c31 63 62 132 69 154 l13 40
8 -55 c5 -30 7 -84 6 -120z m-393 -397 c-23 -126 -42 -179 -72 -198 -14 -10
-85 -42 -157 -72 -72 -30 -137 -57 -143 -60 -10 -4 -13 26 -13 134 0 140 11
203 35 203 7 0 32 -16 56 -35 70 -55 77 -53 229 90 88 82 91 79 65 -62z m-483
-168 c-5 -30 -13 -35 -81 -51 -72 -16 -90 -11 -64 18 48 53 152 77 145 33z
m788 -24 c0 -6 -4 -13 -10 -16 -5 -3 -10 -14 -10 -24 0 -24 -37 -71 -56 -71
-19 0 -18 20 3 36 10 7 14 16 10 21 -5 4 -14 0 -21 -10 -14 -17 -36 -23 -36
-9 0 10 48 56 75 70 25 14 45 15 45 3z m-140 -21 c-14 -11 -30 -24 -36 -29
-45 -37 -128 -90 -225 -145 -176 -100 -278 -177 -386 -289 -80 -84 -173 -213
-235 -325 -29 -52 -48 -72 -114 -117 -43 -29 -81 -52 -83 -49 -10 10 84 176
150 265 114 153 263 293 422 399 79 51 97 76 35 47 -18 -8 -68 -31 -111 -51
-228 -104 -445 -301 -593 -539 -36 -59 -70 -110 -75 -113 -12 -7 -79 23 -79
37 0 38 86 172 178 277 90 103 307 265 492 369 89 50 418 199 514 232 48 17
95 35 105 41 9 5 27 9 41 9 l25 0 -25 -19z m-601 -136 c1 -6 -64 -47 -143 -92
-251 -143 -470 -323 -564 -464 -13 -21 -28 -38 -33 -38 -24 0 40 209 92 297
36 61 234 271 246 260 3 -4 -19 -45 -50 -91 -54 -81 -92 -155 -83 -163 2 -2
39 42 81 99 105 139 121 155 187 189 78 40 102 37 47 -5 -46 -34 -145 -144
-137 -151 2 -2 51 38 108 90 58 52 123 104 144 114 l39 20 33 -27 c18 -15 33
-32 33 -38z m450 -148 c-72 -74 -149 -161 -171 -193 -42 -62 -124 -143 -145
-143 -9 0 -12 8 -8 23 3 12 9 43 15 68 5 25 12 53 16 62 12 33 -23 17 -69 -31
-50 -55 -68 -86 -86 -152 -11 -39 -19 -49 -62 -71 -62 -34 -63 -24 -7 84 32
63 63 103 132 173 50 50 118 109 151 131 99 66 321 179 358 182 4 1 -51 -60
-124 -133z"/>
<path d="M1529 8988 c-24 -78 -27 -83 -55 -86 -16 -1 -54 -5 -84 -8 l-54 -6
58 -52 59 -52 -17 -74 c-9 -40 -15 -75 -13 -77 2 -2 32 15 66 37 34 22 66 40
72 40 6 0 36 -18 67 -41 32 -22 58 -35 60 -29 4 10 -8 70 -24 123 -4 13 10 33
48 68 62 58 57 69 -33 69 -63 0 -54 -9 -94 105 -10 28 -21 54 -25 58 -4 4 -18
-30 -31 -75z"/>
<path d="M2185 9059 c-3 -8 -15 -45 -28 -84 l-22 -70 -67 -5 c-36 -3 -69 -8
-73 -12 -4 -4 17 -29 46 -56 l53 -50 -17 -72 c-10 -40 -16 -75 -13 -77 2 -2
32 14 66 36 35 23 66 41 69 41 3 0 33 -18 66 -40 34 -23 62 -35 64 -29 2 6 -5
41 -14 77 l-18 65 52 49 c29 27 50 52 47 55 -3 4 -36 9 -72 12 l-66 6 -28 78
c-30 85 -37 97 -45 76z"/>
<path d="M1834 8553 l-29 -78 -72 -6 c-40 -3 -75 -8 -78 -11 -3 -2 20 -25 50
-49 61 -48 63 -55 40 -139 -8 -30 -15 -56 -15 -58 0 -1 32 15 72 37 l71 39 58
-41 c32 -22 62 -38 65 -34 4 3 -2 38 -12 78 l-18 71 53 48 c52 45 53 47 30 53
-13 4 -43 7 -65 7 -50 0 -55 6 -85 93 -13 37 -27 67 -30 67 -3 0 -19 -35 -35
-77z"/>
<path d="M5305 9195 c-223 -42 -376 -158 -478 -361 -90 -178 -102 -491 -27
-695 74 -202 225 -347 430 -411 66 -20 95 -23 235 -23 149 1 166 3 240 29 117
41 180 80 270 171 62 62 89 99 122 165 62 128 77 199 77 375 0 216 -33 331
-140 481 -155 219 -439 324 -729 269z m317 -283 c80 -39 142 -104 185 -194 43
-90 54 -146 54 -277 -1 -233 -72 -370 -229 -444 -61 -29 -76 -32 -167 -32 -87
0 -107 3 -157 27 -67 31 -138 94 -172 151 -48 83 -70 181 -70 312 -1 183 46
309 148 403 79 71 138 93 251 89 79 -2 99 -6 157 -35z"/>
<path d="M6940 9196 c-137 -29 -240 -84 -336 -180 -153 -153 -225 -373 -211
-641 18 -324 172 -553 434 -641 92 -31 253 -43 348 -25 83 15 180 66 241 128
l53 52 6 -67 c4 -37 8 -73 10 -79 3 -10 36 -13 120 -13 l115 0 -2 398 -3 397
-302 3 -303 2 0 -115 c0 -63 0 -118 0 -121 0 -3 72 -5 160 -4 l160 1 0 -34 c0
-104 -74 -213 -178 -264 -50 -24 -69 -27 -157 -28 -88 0 -107 3 -157 27 -140
66 -212 197 -224 413 -15 246 65 431 221 513 44 23 62 26 150 27 82 0 109 -4
146 -21 63 -30 126 -88 155 -145 l24 -48 150 -3 c170 -3 164 -7 137 83 -75
247 -275 385 -572 395 -78 2 -143 -1 -185 -10z"/>
<path d="M8368 9200 c-173 -29 -295 -113 -360 -248 -30 -62 -32 -74 -33 -172
0 -89 4 -113 23 -155 60 -131 184 -205 461 -275 162 -41 247 -81 275 -129 25
-43 26 -114 2 -159 -39 -76 -172 -121 -295 -101 -124 20 -187 72 -205 172 l-7
37 -154 0 -155 0 0 -27 c0 -49 30 -155 56 -204 53 -97 133 -158 270 -206 73
-25 91 -27 234 -28 123 0 167 4 215 19 241 74 371 254 351 484 -10 124 -63
218 -158 281 -74 50 -130 71 -341 127 -94 24 -190 56 -213 69 -72 42 -95 131
-51 195 35 52 79 73 167 78 135 8 230 -42 258 -136 l13 -42 146 0 145 0 -7 48
c-16 106 -69 209 -137 267 -105 89 -322 135 -500 105z"/>
<path d="M6467 7306 c-53 -15 -107 -61 -132 -112 -23 -49 -20 -154 7 -210 31
-66 92 -104 169 -104 47 0 63 5 87 25 36 30 42 31 42 5 0 -16 7 -20 36 -20 29
0 35 3 30 16 -3 9 -6 63 -6 120 l0 104 -75 0 -75 0 0 -40 c0 -39 1 -40 35 -40
30 0 35 -3 35 -24 0 -15 -12 -35 -32 -51 -42 -36 -97 -30 -142 14 -26 26 -31
39 -34 95 -4 54 -1 71 17 100 38 61 111 73 164 26 31 -27 36 -28 69 -18 40 12
41 25 4 66 -45 51 -122 69 -199 48z"/>
<path d="M8387 7306 c-92 -25 -146 -105 -147 -214 0 -70 20 -120 67 -164 84
-79 237 -60 306 39 72 102 31 276 -78 331 -36 18 -99 21 -148 8z m104 -81 c94
-49 92 -212 -2 -260 -41 -21 -84 -13 -121 22 -68 65 -53 204 25 238 42 18 62
18 98 0z"/>
<path d="M4760 7100 l0 -210 50 0 50 0 0 210 0 210 -50 0 -50 0 0 -210z"/>
<path d="M4980 7100 l0 -210 40 0 39 0 3 137 3 138 51 -115 c47 -107 52 -115
81 -118 37 -4 41 1 93 123 24 55 47 104 52 110 4 5 8 -55 8 -133 l0 -142 40 0
40 0 0 210 0 210 -54 0 -53 0 -59 -125 c-32 -69 -60 -125 -63 -125 -4 0 -30
57 -60 125 l-53 125 -54 0 -54 0 0 -210z"/>
<path d="M5560 7100 l0 -210 40 0 40 0 0 135 c0 74 3 135 8 135 4 0 27 -48 52
-106 49 -115 58 -127 91 -122 19 2 33 25 74 115 27 62 52 113 55 113 3 0 4
-61 2 -135 l-3 -135 47 0 46 0 -4 208 -4 207 -54 0 -55 0 -54 -122 c-30 -67
-57 -120 -59 -118 -3 2 -29 57 -58 122 l-53 118 -55 3 -56 3 0 -211z"/>
<path d="M6130 7100 l0 -210 45 0 45 0 0 210 0 210 -45 0 -45 0 0 -210z"/>
<path d="M6820 7101 l0 -211 45 0 45 0 0 76 0 75 32 -3 c28 -3 37 -13 76 -75
l43 -73 50 0 c56 0 57 -7 -9 94 l-39 60 38 36 c48 45 59 94 33 146 -34 68 -60
79 -195 82 l-119 4 0 -211z m218 117 c17 -17 15 -74 -4 -92 -10 -11 -34 -16
-70 -16 l-54 0 0 60 0 60 58 0 c32 0 63 -5 70 -12z"/>
<path d="M7357 7303 c-3 -5 -37 -92 -75 -193 -38 -102 -73 -193 -77 -203 -7
-16 -3 -18 40 -15 47 3 49 4 63 46 l14 42 83 0 83 0 18 -45 c17 -45 17 -45 64
-45 l48 0 -83 208 -82 207 -46 3 c-25 2 -47 -1 -50 -5z m78 -166 c14 -37 25
-72 25 -77 0 -6 -25 -10 -55 -10 -30 0 -55 3 -55 6 0 12 53 154 56 151 2 -2
15 -33 29 -70z"/>
<path d="M7620 7270 l0 -40 60 0 60 0 0 -170 0 -170 40 0 40 0 0 170 0 169 63
3 62 3 3 38 3 37 -165 0 -166 0 0 -40z"/>
<path d="M8040 7100 l0 -210 45 0 45 0 0 210 0 210 -45 0 -45 0 0 -210z"/>
<path d="M8750 7100 l0 -210 40 0 40 0 0 140 c0 77 3 140 8 140 4 0 48 -63 97
-140 l90 -140 43 0 42 0 0 210 0 210 -46 0 -45 0 3 -129 c2 -95 0 -127 -8
-120 -6 5 -47 63 -90 129 l-79 120 -47 0 -48 0 0 -210z"/>
<path d="M4837 6596 c-46 -17 -64 -32 -83 -67 -41 -81 12 -157 123 -175 48 -7
103 -38 103 -57 0 -7 -10 -24 -21 -36 -30 -32 -104 -25 -134 13 -21 27 -58 34
-85 16 -13 -8 -12 -14 5 -46 28 -51 75 -74 153 -74 88 0 129 21 155 79 18 41
19 49 6 85 -18 50 -48 72 -129 92 -85 21 -100 30 -100 59 0 29 26 45 72 45 31
0 78 -29 78 -48 0 -4 18 -6 40 -4 36 4 40 7 34 26 -11 36 -33 65 -62 80 -43
22 -112 28 -155 12z"/>
<path d="M6775 6605 c-5 -2 -22 -6 -37 -9 -39 -9 -98 -64 -119 -111 -47 -102
-7 -247 80 -292 52 -27 146 -31 190 -9 35 18 93 84 88 99 -2 6 -18 15 -37 20
-29 7 -36 5 -54 -16 -48 -57 -111 -59 -161 -7 -25 26 -30 40 -33 98 -3 57 0
72 20 102 43 63 115 65 171 6 27 -29 37 -33 65 -29 36 6 38 12 17 52 -33 65
-133 115 -190 96z"/>
<path d="M5170 6387 l0 -213 135 0 135 1 0 37 0 38 -95 0 -95 0 0 50 0 50 85
0 c77 0 85 2 85 19 0 11 3 26 6 35 5 13 -8 16 -83 18 l-88 3 -3 48 -3 47 96 0
96 0 -3 38 -3 37 -132 3 -133 3 0 -214z"/>
<path d="M5554 6587 c-2 -7 -3 -102 -2 -212 l3 -200 43 -3 42 -3 0 80 0 81 33
0 c29 -1 36 -7 77 -78 l46 -77 47 -3 c26 -2 47 0 47 4 0 4 -15 30 -34 58 -70
107 -68 97 -29 131 79 68 53 198 -46 225 -54 15 -220 13 -227 -3z m207 -77
c13 -7 19 -21 19 -45 0 -44 -29 -65 -92 -65 l-48 0 0 60 0 60 51 0 c28 0 59
-5 70 -10z"/>
<path d="M5935 6578 c4 -13 38 -108 75 -213 l67 -190 46 -3 c36 -2 48 1 55 15
14 27 142 390 142 403 0 7 -15 10 -42 8 l-42 -3 -50 -152 c-28 -84 -53 -153
-56 -153 -3 0 -30 70 -59 155 l-54 155 -44 0 c-41 0 -44 -2 -38 -22z"/>
<path d="M6410 6386 l0 -213 40 1 40 1 0 212 0 213 -40 0 -40 0 0 -214z"/>
<path d="M7080 6387 l0 -214 135 0 135 -1 0 39 0 39 -95 0 -95 0 0 50 0 50 85
0 85 0 0 35 0 35 -85 0 -85 0 0 50 0 50 95 0 95 0 0 40 0 40 -135 0 -135 0 0
-213z"/>
</g>
</svg>
