<?xml version="1.0" standalone="no"?>
<!DOCTYPE svg PUBLIC "-//W3C//DTD SVG 20010904//EN"
 "http://www.w3.org/TR/2001/REC-SVG-20010904/DTD/svg10.dtd">
<svg version="1.0" xmlns="http://www.w3.org/2000/svg"
 width="1024.000000pt" height="1536.000000pt" viewBox="0 0 1024.000000 1536.000000"
 preserveAspectRatio="xMidYMid meet">

<g transform="translate(0.000000,1536.000000) scale(0.100000,-0.100000)"
fill="#000000" stroke="none">
<path d="M3137 10220 c-10 -26 -74 -307 -111 -480 -19 -91 -42 -197 -51 -237
l-16 -71 -67 -11 c-37 -6 -107 -23 -155 -38 -59 -18 -93 -24 -102 -17 -7 5
-48 40 -91 78 -74 64 -147 124 -456 373 -71 57 -128 100 -128 96 0 -16 304
-531 402 -683 16 -24 15 -26 -5 -51 -12 -14 -48 -58 -79 -97 -57 -69 -58 -70
-90 -61 -18 5 -184 39 -368 74 -184 36 -378 74 -430 84 -52 11 -96 18 -98 16
-5 -4 648 -361 761 -416 l47 -23 -6 -76 c-4 -41 -8 -77 -10 -78 -1 -2 -58 -16
-126 -32 -356 -81 -644 -153 -655 -163 -7 -7 187 -18 719 -40 42 -2 83 -9 91
-16 8 -6 45 -62 81 -124 77 -130 94 -153 102 -144 3 3 1 51 -5 107 -14 130
-14 314 0 382 6 29 23 76 37 103 14 28 45 90 70 138 56 112 125 187 205 227
103 50 288 80 497 80 260 0 377 -40 555 -190 92 -77 105 -109 105 -250 0 -83
5 -131 16 -161 16 -46 21 -124 14 -219 -4 -48 0 -65 32 -132 47 -97 62 -156
54 -212 -7 -45 -18 -59 -89 -108 -24 -17 -25 -21 -30 -185 -3 -93 -11 -185
-18 -205 -16 -49 -49 -79 -107 -99 l-47 -16 45 -20 c25 -11 169 -66 320 -122
332 -124 437 -173 511 -240 76 -68 150 -170 199 -272 l39 -84 1 807 0 808
-367 2 -368 3 -3 36 c-6 70 -18 68 459 71 l424 3 -100 32 c-92 29 -516 145
-645 176 l-55 13 -3 75 -3 75 53 18 c66 24 460 194 633 273 72 33 137 63 145
66 51 19 -199 -8 -595 -63 -121 -17 -240 -33 -265 -37 l-46 -5 -19 43 c-11 24
-42 67 -68 96 -27 29 -47 56 -45 60 1 4 102 157 224 338 252 378 241 361 225
351 -7 -4 -110 -82 -229 -172 -119 -91 -276 -207 -348 -259 l-131 -95 -39 20
c-21 10 -85 34 -141 52 l-102 33 -10 50 c-10 49 -88 478 -121 665 -10 52 -20
88 -23 80z"/>
<path d="M2950 9004 c-92 -12 -213 -37 -285 -61 -94 -30 -133 -65 -183 -163
-18 -36 -48 -90 -65 -120 -31 -54 -32 -58 -35 -201 -5 -216 13 -301 134 -631
l28 -76 -17 -128 c-21 -148 -42 -196 -120 -275 -48 -47 -190 -129 -224 -129
-14 0 -14 -16 -7 -122 16 -242 10 -287 -44 -323 -48 -31 -199 -55 -213 -34
-25 40 -5 63 66 79 28 6 61 18 74 27 23 15 24 19 18 97 -4 44 -13 144 -21 221
-8 77 -22 214 -30 305 -70 733 -68 724 -131 742 -31 9 -153 4 -265 -12 -36 -5
-200 -26 -365 -45 -165 -20 -303 -39 -307 -43 -3 -4 0 -70 8 -147 7 -77 36
-376 64 -665 27 -289 52 -539 55 -557 5 -28 10 -32 43 -35 l37 -3 7 -60 c3
-33 12 -126 18 -207 11 -138 11 -152 -10 -250 -28 -130 -97 -408 -110 -442
l-10 -26 1845 0 c1570 0 1845 2 1845 14 0 8 -6 47 -14 87 -8 41 -33 175 -56
299 -87 472 -121 578 -229 707 -67 81 -124 115 -298 178 -502 180 -703 276
-703 334 0 10 28 30 73 51 117 57 135 97 144 329 l6 154 51 48 c47 44 51 52
50 91 0 26 -15 75 -36 123 -55 123 -60 146 -53 232 6 68 3 89 -21 168 -18 57
-28 114 -29 154 l0 64 -52 18 c-40 13 -198 38 -325 50 -39 4 92 18 182 19 58
1 116 5 130 9 23 6 20 10 -49 59 -112 79 -171 94 -371 97 -91 2 -181 1 -200
-1z m589 -423 c10 -10 28 -47 40 -83 17 -51 21 -84 19 -168 -2 -92 0 -110 19
-145 51 -93 66 -162 41 -183 -7 -5 -46 -15 -86 -22 -75 -12 -115 -35 -90 -51
7 -5 19 -9 27 -9 22 0 51 -31 51 -55 0 -18 -9 -23 -62 -34 -108 -22 -130 -51
-40 -51 63 0 89 -8 95 -29 7 -28 -11 -61 -39 -71 l-26 -10 31 -29 c52 -49 39
-116 -26 -135 -42 -13 -237 -7 -296 8 -79 22 -152 60 -215 114 l-53 45 7 -44
c23 -163 55 -207 242 -329 l24 -15 -22 -27 c-25 -32 -138 -98 -167 -98 -26 0
-246 150 -388 265 -10 8 -10 36 0 140 8 72 16 137 20 146 3 9 32 26 65 38 99
36 103 62 11 75 -51 7 -70 19 -93 56 -23 35 -48 158 -48 230 0 55 3 65 29 91
52 52 133 35 224 -46 60 -55 60 -54 107 60 29 68 34 95 38 181 3 72 0 117 -11
153 l-15 51 284 0 c265 0 285 -1 303 -19z m-1928 -662 c98 -43 169 -152 177
-274 5 -83 -6 -128 -51 -199 -97 -153 -311 -174 -443 -42 -167 167 -102 460
118 532 54 17 134 11 199 -17z m1025 -636 c154 -104 306 -216 311 -228 6 -18
-19 -62 -67 -115 -78 -86 -136 -170 -116 -170 2 0 38 16 81 36 86 40 95 37 95
-26 -1 -36 -4 -70 -41 -440 -11 -118 -21 -235 -21 -259 0 -24 -3 -39 -8 -35
-22 24 -241 865 -284 1094 -36 190 -36 190 -27 190 5 0 40 -21 77 -47z m753
-60 c24 -16 24 -17 17 -157 -3 -78 -17 -215 -31 -306 -22 -147 -104 -588 -123
-664 -6 -23 -14 9 -35 140 -34 219 -77 540 -77 582 0 41 12 41 94 0 108 -53
99 -21 -33 115 -47 49 -89 95 -93 102 -5 9 8 26 40 53 58 48 202 152 211 152
4 0 17 -7 30 -17z m-1585 -86 c7 -19 7 -34 0 -45 -6 -9 -74 -42 -150 -72 -298
-120 -337 -163 -88 -100 176 45 225 51 247 32 20 -18 22 -55 4 -70 -7 -6 -88
-36 -180 -66 -182 -60 -210 -72 -202 -87 10 -15 83 -10 215 16 69 14 137 25
152 25 29 0 58 -31 58 -62 0 -24 -20 -33 -158 -72 -122 -35 -202 -69 -202 -86
0 -14 6 -13 168 12 l143 22 26 -26 c30 -30 41 -98 24 -150 -12 -35 -66 -96
-76 -86 -3 3 -9 29 -14 57 -4 28 -10 54 -13 57 -3 3 -29 -1 -58 -8 l-53 -14
-1 -84 c-1 -107 -28 -168 -93 -213 l-43 -31 42 -21 c40 -19 43 -23 43 -60 0
-70 -32 -73 -211 -19 -90 27 -89 23 -74 156 16 139 9 266 -20 403 -27 127 -37
307 -20 361 30 93 101 140 330 218 154 53 190 55 204 13z m1996 -290 c0 -27
-70 -295 -95 -365 -36 -100 -84 -206 -91 -200 -3 3 2 32 10 64 24 93 56 258
62 322 6 57 5 61 -25 87 -17 16 -31 32 -31 36 0 11 32 28 95 50 60 22 75 23
75 6z"/>
<path d="M3304 8351 c-30 -19 -64 -57 -64 -73 0 -5 8 -8 18 -8 9 0 53 -18 97
-40 79 -40 80 -40 105 -22 27 20 70 96 70 124 0 26 -39 38 -123 38 -53 0 -80
-5 -103 -19z"/>
<path d="M2651 8126 c-23 -27 70 -179 98 -161 16 9 13 92 -4 125 -24 46 -71
64 -94 36z"/>
<path d="M1451 7877 c-17 -21 -41 -84 -41 -108 0 -21 3 -22 62 -15 34 3 67 11
72 16 7 7 1 28 -17 65 -27 56 -52 70 -76 42z"/>
<path d="M1550 7885 c0 -3 31 -73 46 -103 3 -6 74 32 74 40 0 11 -90 68 -107
68 -7 0 -13 -2 -13 -5z"/>
<path d="M1351 7850 c-64 -47 -66 -70 -8 -84 23 -5 27 -3 27 14 0 11 7 37 15
57 8 20 14 38 12 40 -2 2 -23 -11 -46 -27z"/>
<path d="M1650 7762 c-19 -9 -36 -17 -38 -18 -2 -1 2 -22 9 -48 l11 -46 54 0
c51 0 54 1 54 25 0 28 -36 105 -48 104 -4 0 -23 -8 -42 -17z"/>
<path d="M1262 7723 c-17 -31 -24 -100 -12 -108 6 -4 33 -4 60 0 l50 7 0 48
c0 41 -3 48 -22 53 -13 3 -33 8 -45 12 -15 5 -24 2 -31 -12z"/>
<path d="M1515 7720 c-16 -4 -49 -8 -72 -9 l-43 -1 0 -56 c0 -30 5 -75 11
-100 l12 -45 71 6 c39 4 77 8 84 10 13 5 16 67 6 153 -7 56 -10 57 -69 42z"/>
<path d="M1630 7583 c0 -16 -3 -37 -6 -49 -4 -17 2 -23 37 -37 24 -9 46 -14
50 -9 11 12 29 74 29 98 0 22 -4 24 -55 24 -53 0 -55 -1 -55 -27z"/>
<path d="M1282 7573 c-36 -5 -36 -15 -6 -74 24 -48 39 -53 76 -27 18 12 34 23
35 23 1 1 -4 19 -11 40 -15 43 -26 47 -94 38z"/>
<path d="M1463 7473 c-13 -2 -23 -7 -23 -9 0 -15 63 -94 75 -94 16 0 38 38 49
83 6 26 5 27 -36 26 -24 -1 -53 -4 -65 -6z"/>
<path d="M1598 7425 c-10 -25 -13 -45 -9 -45 17 0 93 62 85 70 -5 4 -20 10
-34 13 -23 6 -28 2 -42 -38z"/>
<path d="M1364 7436 c-15 -11 -16 -17 -7 -27 13 -13 93 -50 93 -43 0 14 -46
84 -56 84 -5 0 -19 -6 -30 -14z"/>
<path d="M5572 8729 c-138 -23 -300 -116 -383 -221 -49 -62 -110 -186 -136
-278 -15 -53 -18 -99 -17 -250 0 -172 2 -191 28 -275 35 -117 93 -214 176
-296 130 -129 272 -183 475 -182 100 1 133 5 201 27 169 54 301 171 387 341
60 120 72 185 72 385 0 163 -3 194 -23 265 -74 257 -253 430 -494 479 -83 17
-201 19 -286 5z m241 -299 c146 -55 233 -204 244 -420 11 -226 -65 -399 -205
-463 -38 -18 -66 -22 -142 -22 -84 0 -102 3 -152 28 -92 45 -164 152 -188 277
-15 79 -12 257 5 323 30 116 99 216 177 258 78 42 180 49 261 19z"/>
<path d="M7120 8726 c-213 -45 -364 -162 -455 -351 -69 -143 -80 -201 -80
-405 1 -199 10 -248 78 -390 32 -69 55 -101 121 -166 131 -132 264 -184 466
-184 199 0 335 53 461 179 130 130 178 256 186 489 l6 142 -322 0 -321 0 0
-120 0 -120 165 0 c186 0 178 5 146 -80 -25 -65 -82 -135 -130 -159 -80 -41
-146 -53 -222 -42 -168 26 -268 132 -300 315 -17 98 -7 295 19 367 53 149 150
232 298 255 56 8 156 -19 210 -58 44 -31 107 -113 119 -155 6 -23 9 -23 156
-23 170 0 161 -6 133 91 -62 207 -208 351 -410 404 -85 22 -245 27 -324 11z"/>
<path d="M8451 8715 c-152 -33 -258 -111 -318 -233 -38 -75 -38 -77 -38 -197
0 -116 1 -123 33 -187 61 -125 157 -179 447 -253 237 -61 283 -94 272 -193
-14 -127 -218 -184 -375 -106 -60 30 -101 84 -102 132 0 22 -1 22 -160 22
l-160 0 0 -24 c0 -49 22 -133 49 -191 52 -109 158 -192 301 -236 99 -31 302
-34 394 -5 244 74 375 245 364 475 -3 74 -9 99 -36 154 -60 122 -156 180 -407
246 -278 73 -305 91 -305 194 0 52 19 81 73 109 59 32 184 32 243 1 47 -25 84
-65 103 -112 l13 -31 139 0 139 0 0 39 c0 50 -30 148 -64 205 -53 90 -167 165
-294 192 -84 17 -227 17 -311 -1z"/>
<path d="M6660 6965 c-102 -46 -150 -162 -115 -282 32 -110 86 -153 195 -153
115 0 178 59 188 175 l5 65 -102 0 -101 0 0 -35 0 -35 50 0 c46 0 50 -2 50
-23 0 -38 -39 -67 -92 -67 -39 0 -50 5 -72 30 -30 36 -40 83 -33 146 9 82 84
132 147 99 16 -8 34 -24 40 -35 8 -15 21 -20 55 -20 52 0 55 8 22 64 -40 71
-158 106 -237 71z"/>
<path d="M8499 6957 c-104 -55 -142 -208 -81 -328 35 -70 89 -102 171 -102 62
0 102 17 143 60 52 55 74 174 46 254 -41 120 -170 173 -279 116z m158 -92 c58
-65 49 -192 -16 -242 -30 -23 -90 -16 -120 15 -65 64 -44 220 34 253 31 13 78
1 102 -26z"/>
<path d="M5040 6750 l0 -220 50 0 50 0 0 220 0 220 -50 0 -50 0 0 -220z"/>
<path d="M5250 6750 l0 -220 45 0 45 0 1 143 c1 159 -5 159 61 0 29 -71 31
-73 64 -73 32 0 36 4 55 48 12 26 32 76 44 112 l24 65 0 -147 1 -148 51 0 50
0 -3 218 -3 217 -60 0 -59 0 -48 -114 c-26 -62 -48 -115 -50 -116 -2 -2 -26
49 -53 113 l-50 117 -58 3 -57 3 0 -221z"/>
<path d="M5800 6750 l0 -220 45 0 45 0 0 143 1 142 43 -105 c43 -103 44 -105
78 -108 l35 -3 44 113 44 112 3 -147 3 -147 44 0 45 0 0 220 0 220 -59 0 -58
0 -51 -122 c-46 -113 -51 -121 -61 -98 -6 14 -28 68 -50 120 l-39 95 -56 3
-56 3 0 -221z"/>
<path d="M6350 6750 l0 -220 45 0 45 0 0 220 0 220 -45 0 -45 0 0 -220z"/>
<path d="M7023 6750 l0 -220 49 0 48 0 0 81 c0 77 1 80 22 77 16 -2 34 -24 64
-78 l41 -75 51 -3 c29 -2 52 1 52 5 0 5 -20 41 -45 81 -25 40 -45 75 -45 80 0
4 15 17 34 29 56 36 67 142 19 195 -36 40 -67 48 -181 48 l-110 0 1 -220z
m205 124 c26 -18 29 -60 5 -86 -11 -13 -30 -18 -65 -18 l-48 0 0 60 0 60 43 0
c23 0 53 -7 65 -16z"/>
<path d="M7476 6763 c-38 -115 -71 -214 -74 -221 -3 -10 7 -12 43 -10 46 3 48
4 64 48 l17 45 71 3 71 3 17 -51 17 -50 50 0 c44 0 49 2 43 18 -3 9 -39 108
-78 220 l-72 202 -50 0 -50 0 -69 -207z m163 -56 c-2 -2 -23 -7 -46 -11 -52
-8 -52 -4 -21 98 l21 71 25 -77 c14 -43 24 -79 21 -81z"/>
<path d="M7798 6930 l4 -40 54 0 54 0 0 -180 0 -180 50 0 50 0 -3 178 -2 177
58 3 57 3 0 39 0 40 -163 0 -163 0 4 -40z"/>
<path d="M8200 6750 l0 -220 50 0 50 0 0 220 0 220 -50 0 -50 0 0 -220z"/>
<path d="M8880 6750 l0 -220 45 0 45 0 0 138 c1 160 -5 161 96 -20 l67 -118
43 0 44 0 0 220 0 220 -45 0 -45 0 0 -132 c0 -116 -2 -130 -13 -108 -8 14 -42
73 -76 133 l-63 107 -49 0 -49 0 0 -220z"/>
<path d="M5143 6348 c-60 -13 -103 -64 -103 -123 0 -65 28 -92 131 -125 69
-22 85 -31 87 -49 5 -34 -16 -51 -64 -51 -35 0 -49 5 -66 25 -22 26 -81 35
-93 15 -11 -18 29 -84 64 -104 43 -25 142 -26 188 -2 62 31 88 107 59 164 -21
41 -47 57 -126 77 -36 9 -71 22 -78 28 -21 17 -10 51 21 65 37 18 75 8 89 -23
9 -21 18 -25 56 -25 l45 0 -7 32 c-9 45 -50 84 -101 97 -49 12 -45 12 -102 -1z"/>
<path d="M6957 6346 c-91 -25 -140 -101 -140 -217 0 -127 64 -206 174 -214 89
-6 170 45 194 123 6 20 3 22 -37 22 -36 0 -48 -5 -70 -30 -46 -53 -134 -35
-157 32 -25 70 -8 165 34 192 41 27 89 21 121 -16 28 -32 79 -48 104 -33 12 7
-12 70 -38 98 -41 45 -113 62 -185 43z"/>
<path d="M5440 6135 l0 -215 135 0 135 0 0 43 0 44 -85 -4 -85 -4 0 50 0 51
76 0 75 0 -3 38 -3 37 -75 5 c-41 3 -74 8 -72 13 1 4 2 23 2 42 l0 35 85 0 85
0 0 40 0 40 -135 0 -135 0 0 -215z"/>
<path d="M5820 6135 l0 -215 45 0 45 0 0 80 c0 78 1 80 24 80 19 0 32 -15 68
-77 l43 -78 53 -3 c28 -2 52 1 52 5 -1 4 -23 42 -50 83 -44 66 -48 76 -33 85
69 42 90 134 46 202 -26 40 -73 53 -187 53 l-106 0 0 -215z m202 118 c25 -23
23 -68 -4 -87 -12 -9 -42 -16 -65 -16 l-43 0 0 60 0 60 47 0 c29 0 53 -6 65
-17z"/>
<path d="M6180 6343 c0 -5 31 -100 68 -213 l69 -205 50 -3 51 -3 67 203 c38
112 70 209 73 216 3 8 -10 12 -45 12 l-50 0 -36 -117 c-20 -65 -40 -133 -43
-150 -6 -32 -24 -47 -24 -20 0 6 -19 74 -42 149 l-43 138 -47 0 c-27 0 -48 -3
-48 -7z"/>
<path d="M6631 6135 l1 -215 49 0 49 0 0 215 0 215 -50 0 -50 0 1 -215z"/>
<path d="M7280 6135 l0 -215 135 0 135 0 0 43 0 43 -87 -1 -88 0 -3 48 -3 47
75 0 76 0 0 40 0 40 -75 0 -75 0 0 45 0 45 90 0 90 0 0 40 0 40 -135 0 -135 0
0 -215z"/>
</g>
</svg>
