<?xml version="1.0" standalone="no"?>
<!DOCTYPE svg PUBLIC "-//W3C//DTD SVG 20010904//EN"
 "http://www.w3.org/TR/2001/REC-SVG-20010904/DTD/svg10.dtd">
<svg version="1.0" xmlns="http://www.w3.org/2000/svg"
 width="1024.000000pt" height="1536.000000pt" viewBox="0 0 1024.000000 1536.000000"
 preserveAspectRatio="xMidYMid meet">

<g transform="translate(0.000000,1536.000000) scale(0.100000,-0.100000)"
fill="#000000" stroke="none">
<path d="M3718 13905 c6 -32 -22 -107 -54 -145 -14 -16 -60 -54 -104 -84 -102
-72 -147 -119 -177 -184 -22 -47 -24 -62 -19 -124 12 -118 31 -131 174 -122
102 7 272 -10 283 -28 10 -16 82 56 111 109 64 118 72 228 25 332 l-24 55 -15
-25 c-8 -13 -32 -52 -52 -87 -21 -34 -46 -67 -57 -72 -23 -13 -24 -8 -4 67 30
113 16 206 -42 286 -39 53 -53 59 -45 22z"/>
<path d="M3431 13165 c-81 -15 -114 -34 -148 -85 -24 -35 -31 -94 -12 -106 8
-5 7 -9 -4 -15 -22 -13 -40 -75 -33 -114 6 -32 45 -74 124 -135 17 -14 36 -40
41 -57 8 -26 5 -37 -15 -64 -14 -19 -24 -47 -24 -65 0 -64 50 -228 91 -295 21
-36 39 -71 39 -79 0 -7 -10 -39 -21 -71 -19 -51 -20 -61 -8 -76 9 -11 10 -14
2 -9 -7 4 -13 3 -13 -3 0 -5 6 -14 13 -18 7 -4 22 -43 32 -87 11 -43 29 -94
41 -114 l22 -35 26 27 c15 14 36 47 47 71 11 25 24 45 28 45 4 0 11 -48 14
-107 25 -427 58 -598 167 -863 26 -63 62 -160 80 -215 18 -55 36 -104 40 -108
4 -5 15 -1 24 9 29 28 15 87 -88 379 -26 75 -50 165 -56 210 -11 85 -2 532 10
518 17 -20 114 -374 136 -497 20 -111 71 -322 85 -348 13 -25 21 -23 74 18 26
19 48 34 50 32 3 -3 -12 -27 -119 -200 -22 -35 -54 -81 -71 -103 -17 -22 -50
-83 -72 -135 -81 -186 -110 -364 -78 -478 12 -43 15 -66 7 -74 -17 -21 -25
-84 -13 -106 16 -30 63 -44 134 -40 l64 3 0 -65 c0 -73 35 -187 77 -251 14
-21 26 -50 26 -63 0 -14 -27 -85 -61 -158 -87 -190 -124 -285 -158 -406 -79
-282 -85 -408 -31 -634 14 -58 16 -86 9 -115 -6 -21 -13 -117 -16 -213 -5
-163 -2 -236 27 -555 17 -192 29 -337 35 -440 3 -55 8 -116 10 -135 2 -19 9
-144 16 -277 11 -239 21 -312 53 -385 9 -21 14 -38 12 -38 -30 0 -252 162
-446 327 l-105 89 -3 1327 -2 1327 233 0 233 0 11 38 c6 20 27 80 47 132 l37
95 -32 69 c-18 39 -42 101 -55 140 -22 69 -22 69 -69 81 -62 16 -95 42 -123
96 -19 36 -23 58 -21 124 1 44 -2 116 -6 160 -13 136 14 261 92 427 l46 97
-87 193 c-49 106 -101 231 -116 278 -30 90 -60 222 -60 265 0 14 -2 25 -4 25
-4 0 -142 -36 -491 -129 -104 -27 -309 -84 -455 -127 -146 -42 -273 -78 -282
-81 -17 -5 -18 -86 -18 -1527 0 -958 4 -1554 10 -1611 37 -326 204 -689 472
-1027 101 -128 417 -445 561 -563 356 -293 993 -710 1548 -1014 l76 -41 159
91 c575 329 1100 679 1439 960 127 105 425 404 534 534 218 262 399 604 462
875 48 204 49 228 46 1335 -1 572 -3 1241 -5 1486 l-2 447 -48 20 c-176 75
-768 234 -1145 308 l-137 27 -194 -78 c-106 -42 -210 -87 -231 -99 l-39 -21 3
-63 c2 -53 -2 -73 -24 -117 l-27 -53 32 -87 c39 -106 49 -218 29 -321 -7 -38
-12 -75 -10 -83 7 -34 41 -63 111 -92 140 -59 238 -143 331 -284 42 -64 154
-288 184 -367 19 -51 30 -59 40 -29 14 45 45 71 85 71 31 0 52 -10 107 -51 76
-58 75 -57 144 -157 l50 -72 -46 -135 c-25 -75 -45 -138 -45 -140 0 -3 54 -5
120 -5 l120 0 0 -1054 0 -1054 -67 -84 c-37 -45 -89 -108 -116 -138 -61 -68
-276 -270 -288 -270 -5 0 -9 193 -9 429 l0 429 43 25 c60 36 166 151 204 223
87 164 125 354 126 634 2 236 -13 306 -93 436 -34 55 -50 93 -50 115 -1 49
-16 112 -52 207 -25 66 -29 87 -20 106 5 12 24 84 41 159 23 98 29 142 22 155
-17 31 -175 151 -185 141 -2 -2 -21 -35 -42 -74 -20 -38 -46 -82 -56 -97 -10
-14 -18 -34 -18 -43 0 -26 -17 -8 -24 25 -9 49 -92 255 -145 361 -127 255
-296 428 -446 454 -50 9 -65 21 -65 50 0 13 -16 45 -35 71 -50 69 -50 69 -25
121 20 43 22 59 18 158 -5 99 -9 118 -42 193 -20 46 -36 94 -36 106 0 12 14
35 31 52 30 28 31 31 26 99 -2 39 -8 78 -12 88 -4 10 -3 17 3 17 6 0 68 31
139 69 70 38 163 84 206 102 42 18 77 37 77 41 0 5 -21 6 -47 4 -27 -3 -104
-11 -173 -17 -69 -6 -158 -14 -198 -18 -79 -8 -76 -9 -121 57 l-23 33 68 72
c38 40 107 115 154 167 47 52 103 115 125 139 l40 45 -85 -46 c-47 -25 -128
-72 -181 -105 -52 -33 -126 -77 -163 -98 l-68 -38 -35 35 -35 35 26 124 c14
69 33 156 42 194 9 39 22 110 30 160 13 87 12 117 -3 79 -4 -10 -32 -59 -63
-109 -31 -49 -92 -153 -135 -230 -42 -77 -83 -146 -89 -153 -33 -34 -104 77
-175 276 -21 59 -57 155 -80 214 -22 59 -41 119 -41 134 0 21 -3 25 -11 17 -9
-9 -8 -83 1 -292 7 -154 10 -287 7 -295 -3 -8 -24 -24 -47 -36 l-41 -21 -207
129 c-114 70 -236 146 -272 167 -36 21 -78 47 -94 58 -16 11 -27 15 -25 9 2
-5 102 -112 222 -237 l218 -226 -28 -52 -28 -52 -232 -3 c-128 -1 -233 -6
-233 -10 0 -5 26 -16 58 -26 31 -9 124 -43 207 -74 130 -50 152 -61 172 -91
13 -19 23 -37 23 -40 0 -4 -35 -24 -77 -45 -76 -37 -187 -101 -230 -132 -21
-15 -22 -15 -43 56 -29 96 -115 332 -146 397 -42 90 -135 332 -160 417 -13 45
-38 152 -54 239 -35 182 -54 235 -114 327 -96 146 -93 162 52 234 86 43 116
81 107 136 -4 19 -13 45 -21 57 -8 13 -14 48 -14 83 0 34 -5 70 -10 81 -39 73
-303 111 -509 74z m358 -131 c91 -41 71 -48 -90 -34 -97 8 -273 0 -322 -16
-15 -5 -18 -2 -15 17 5 38 59 61 157 68 116 8 197 -3 270 -35z m-179 -289 c50
-26 39 -44 -21 -33 -34 6 -61 6 -81 -1 -45 -16 -58 -14 -58 9 0 13 9 22 28 26
15 3 32 7 37 9 25 8 69 4 95 -10z m51 -222 c82 -78 107 -121 120 -207 8 -50 7
-69 -7 -101 -14 -35 -17 -38 -29 -22 -6 9 -15 51 -18 93 -6 83 -12 94 -87 173
-28 29 -57 69 -65 88 -18 43 -18 43 0 43 8 0 47 -30 86 -67z m-152 8 c23 -15
2 -31 -42 -31 -52 0 -80 15 -57 30 19 12 80 13 99 1z m76 -115 c24 -10 33 -20
29 -30 -9 -24 -30 -26 -71 -5 -29 15 -49 18 -88 14 l-50 -6 24 21 c28 24 104
27 156 6z m-19 -107 c17 -14 18 -49 2 -49 -7 0 -22 7 -32 15 -11 8 -30 15 -42
15 -24 0 -48 23 -36 34 10 11 92 -1 108 -15z m65 -256 c16 -3 29 -9 29 -14 0
-5 -2 -9 -4 -9 -2 0 -11 -3 -20 -6 -11 -4 -16 -1 -16 10 0 9 -7 16 -15 16 -8
0 -15 5 -15 10 0 6 -21 10 -46 10 l-47 0 26 24 c41 38 61 37 71 -2 6 -25 15
-34 37 -39z m-51 -113 c0 -33 -13 -38 -36 -15 -10 10 -11 15 -4 15 7 0 10 7 6
15 -4 10 1 15 14 15 16 0 20 -7 20 -30z m1665 -295 c63 -27 122 -72 139 -107
21 -41 20 -45 -4 -17 -16 20 -19 21 -20 7 0 -11 -8 -18 -20 -18 -13 0 -24 -10
-30 -25 -16 -42 -22 -28 -15 33 l7 59 -32 13 c-34 14 -49 5 -50 -30 0 -8 -7
-26 -15 -40 l-14 -25 -2 30 c-4 94 -2 90 -36 93 -30 3 -32 1 -35 -35 -2 -30
-7 -38 -23 -38 -17 0 -20 5 -16 44 l3 44 -42 -6 c-23 -3 -44 -8 -47 -10 -3 -3
-11 -29 -18 -59 l-13 -53 -1 47 c-1 53 -9 61 -46 52 -22 -6 -25 -11 -25 -54 0
-40 -3 -48 -17 -46 -12 2 -19 13 -21 34 -2 18 -7 32 -11 32 -4 0 -34 -24 -66
-52 -61 -54 -63 -51 -12 15 34 44 129 111 178 126 52 16 256 7 304 -14z m-445
-189 c-12 -12 -25 38 -14 56 5 8 10 3 16 -17 4 -16 3 -34 -2 -39z m630 34 c8
-16 8 -20 -4 -20 -9 0 -14 8 -13 20 1 11 2 20 4 20 1 0 7 -9 13 -20z m-687
-60 c-3 -11 -7 -20 -9 -20 -2 0 -4 9 -4 20 0 11 4 20 9 20 5 0 7 -9 4 -20z
m444 -10 c44 -22 80 -52 132 -110 40 -44 68 -80 62 -80 -5 0 -12 4 -15 9 -6 9
-52 18 -241 47 -110 17 -168 35 -180 54 -14 22 -43 7 -114 -62 -42 -40 -68
-64 -60 -53 30 38 32 50 4 25 -15 -14 -43 -47 -61 -75 -54 -79 -39 -30 20 70
96 159 164 204 312 205 70 0 89 -4 141 -30z m206 2 c-3 -12 -10 -22 -15 -22
-5 0 -7 3 -5 8 2 4 7 16 11 26 9 25 17 16 9 -12z m-355 -178 c95 -34 132 -55
132 -75 0 -10 -6 -19 -12 -20 -7 0 -46 -1 -86 -2 -67 -2 -76 -5 -97 -29 -30
-35 -46 -109 -38 -181 l6 -57 -29 0 c-26 0 -27 -1 -12 -16 21 -21 54 -13 91
22 26 24 28 30 22 74 -8 61 5 70 110 70 92 0 101 -11 62 -81 -16 -28 -27 -62
-27 -85 0 -22 -7 -69 -16 -105 -16 -64 -19 -69 -79 -113 -45 -33 -76 -48 -109
-52 l-46 -7 -20 44 c-11 24 -20 51 -20 60 0 9 -13 43 -30 75 -24 48 -30 71
-30 127 0 63 2 68 19 62 15 -4 21 2 30 27 10 28 9 36 -9 58 -54 66 -42 128 41
218 l54 58 23 -27 c12 -15 44 -35 70 -45z m357 -62 c33 -27 67 -62 75 -78 8
-16 21 -37 29 -47 8 -9 12 -20 9 -23 -10 -9 -129 104 -159 151 -16 25 -25 45
-21 45 4 0 34 -22 67 -48z m-739 -149 c-8 -64 -20 -83 -74 -126 -92 -71 -97
-72 -120 -33 -12 19 -38 42 -65 55 -25 12 -50 28 -56 35 -17 20 0 51 29 52 51
3 206 24 235 33 49 15 55 13 51 -16z m89 -189 c23 -9 42 -52 59 -132 8 -39 27
-89 41 -111 34 -51 29 -97 -15 -129 l-29 -22 -79 59 c-43 33 -98 64 -120 71
-30 8 -42 16 -42 29 0 16 -30 124 -47 167 -11 31 182 87 232 68z m-497 -102
c-44 -66 -58 -89 -113 -187 l-27 -50 77 75 c82 80 82 79 -5 -69 -65 -110 -123
-236 -155 -341 -15 -47 -28 -89 -30 -95 -2 -5 -4 8 -4 30 -1 36 27 191 44 240
14 45 -35 -56 -64 -130 -17 -44 -38 -91 -46 -105 l-14 -25 -1 26 c0 44 46 209
85 301 20 48 63 124 96 170 64 89 191 239 198 232 3 -2 -16 -34 -41 -72z
m-1018 -59 c17 -57 34 -102 38 -102 31 5 203 -4 191 -9 -28 -13 -158 -117
-159 -128 0 -5 13 -50 30 -99 16 -49 28 -90 26 -92 -2 -2 -40 23 -85 57 l-81
61 -76 -56 c-41 -31 -81 -58 -88 -61 -9 -3 -6 17 10 65 45 137 47 128 -45 196
-45 32 -81 61 -81 64 0 3 44 5 98 3 73 -2 101 0 109 10 5 7 22 51 37 98 36
111 38 117 42 105 1 -5 17 -56 34 -112z m3499 -103 c84 -1 102 -3 86 -12 -11
-6 -49 -34 -85 -61 -36 -28 -66 -52 -68 -53 -2 -1 10 -45 27 -98 17 -53 31
-99 31 -102 0 -3 -36 22 -79 56 -44 33 -84 60 -89 60 -6 0 -44 -25 -87 -55
-42 -30 -78 -55 -80 -55 -1 0 10 44 26 97 l29 98 -22 17 c-13 10 -51 37 -85
61 -34 23 -63 44 -63 47 0 3 48 5 106 5 l105 0 36 110 36 110 35 -112 35 -113
106 0z m-1147 59 c3 -57 17 -146 30 -197 14 -53 20 -91 14 -89 -17 5 -64 98
-82 163 -27 94 -29 138 -7 170 10 15 17 29 16 31 -9 10 -1 34 10 31 8 -3 14
-39 19 -109z m-1323 -301 c-38 -145 -45 -196 -30 -211 16 -16 32 8 101 149 32
67 63 125 68 128 9 6 -20 -94 -71 -246 -14 -40 -36 -118 -48 -173 l-23 -100
-7 45 c-4 25 -8 63 -8 85 -1 22 -8 53 -16 69 -8 15 -15 35 -15 42 0 8 -4 14
-9 14 -12 0 -20 -81 -26 -280 -3 -96 -9 -195 -12 -220 -6 -45 -6 -45 -15 -15
-5 17 -12 100 -15 185 -6 179 8 289 59 435 35 102 89 228 95 221 2 -2 -10 -60
-28 -128z m747 80 c11 -10 56 -37 100 -61 l79 -42 3 -61 c2 -50 -1 -65 -19
-88 -20 -25 -27 -28 -65 -23 -92 10 -138 82 -146 234 -5 90 -7 88 48 41z
m-369 -46 c-2 -54 -9 -89 -24 -117 -34 -66 -123 -256 -123 -263 0 -4 10 4 21
18 17 20 20 21 14 5 -37 -105 -46 -130 -56 -142 -7 -7 -10 -16 -7 -18 2 -3 51
63 109 146 57 84 122 175 144 203 22 28 48 63 58 79 10 15 21 27 26 27 11 0
-2 -65 -23 -112 -23 -53 -21 -107 6 -135 12 -13 25 -23 30 -23 4 0 8 26 8 58
0 59 16 132 28 132 4 0 14 -19 22 -42 22 -61 57 -82 143 -86 41 -2 110 3 158
12 91 17 269 22 269 7 0 -4 -33 -14 -73 -20 -138 -22 -289 -101 -430 -225 -83
-74 -525 -560 -641 -706 -116 -146 -229 -333 -304 -505 -24 -55 -24 -61 -1 78
18 109 92 307 234 625 22 50 40 110 46 150 9 77 29 139 64 198 14 24 25 48 25
55 0 6 17 53 39 103 54 128 59 150 19 91 -18 -27 -40 -65 -47 -83 -8 -18 -15
-31 -17 -29 -11 11 73 334 116 449 42 113 56 68 16 -54 -23 -73 -42 -158 -33
-148 5 5 133 288 148 328 5 12 15 22 24 22 12 0 15 -13 12 -78z m1031 -197 c0
-20 -3 -23 -14 -14 -8 6 -22 8 -31 5 -14 -6 -11 -10 17 -24 19 -9 37 -19 40
-22 3 -4 42 -12 87 -18 45 -6 96 -18 115 -25 30 -13 18 -14 -117 -9 -95 3
-163 10 -184 18 -47 20 -60 0 -25 -37 l26 -27 -36 -50 c-20 -27 -36 -52 -36
-54 0 -3 -20 -41 -43 -84 -100 -181 -203 -388 -238 -481 -8 -22 -7 -24 13 -17
32 9 156 92 161 107 2 6 8 9 12 5 5 -5 -19 -36 -53 -70 -34 -33 -62 -64 -62
-66 0 -3 6 -13 14 -21 21 -24 86 -151 86 -170 0 -10 -17 1 -47 30 -48 45 -102
84 -108 77 -2 -2 19 -33 47 -68 29 -37 82 -130 123 -215 74 -155 117 -226 230
-380 l66 -90 -70 74 c-87 91 -136 164 -237 354 -139 261 -202 310 -302 237
-57 -41 -70 -70 -127 -280 -12 -47 -34 -125 -49 -174 -26 -87 -33 -146 -18
-146 21 0 109 81 126 115 27 58 38 166 25 239 -6 34 -12 75 -13 91 -1 30 0 30
57 33 35 2 64 -2 73 -9 20 -16 18 -89 -5 -179 -40 -157 -100 -248 -228 -343
-105 -78 -192 -156 -208 -188 -22 -41 -18 -86 9 -133 22 -37 23 -47 15 -91
-24 -124 -49 -312 -49 -365 0 -49 -6 -68 -37 -122 -20 -34 -65 -117 -101 -183
-36 -66 -103 -185 -150 -265 -47 -80 -111 -194 -143 -255 -87 -166 -196 -450
-201 -524 -4 -73 -16 226 -17 455 -1 252 17 607 40 784 49 380 155 879 236
1115 90 258 272 624 424 851 133 198 333 390 485 466 134 66 129 42 -11 -50
-226 -149 -338 -277 -473 -542 -40 -80 -66 -136 -57 -125 33 42 144 194 210
290 130 188 259 299 475 410 135 68 157 90 147 144 -7 32 8 42 29 21 7 -7 75
6 100 19 1 1 2 -10 2 -24z m1377 -161 l29 -95 103 3 c57 2 103 1 103 -3 0 -4
-121 -100 -152 -120 -6 -4 2 -48 20 -108 16 -55 28 -101 26 -101 -1 0 -39 27
-83 60 l-80 61 -28 -18 c-15 -10 -50 -35 -78 -57 -61 -47 -64 -40 -32 72 l24
82 -84 65 -85 64 108 3 108 3 30 93 c17 50 33 92 37 92 3 0 19 -43 34 -96z
m-1351 -27 c68 -89 190 -474 246 -777 12 -63 30 -161 41 -218 25 -129 20 -155
-9 -40 -12 47 -71 236 -131 419 -60 184 -115 354 -121 378 -17 65 -19 46 -4
-39 43 -241 110 -807 124 -1050 5 -91 17 -318 25 -505 49 -1086 49 -1089 163
-1262 8 -13 12 -23 9 -23 -3 0 -30 35 -60 78 -54 78 -142 165 -184 185 -12 5
-24 15 -26 22 -3 6 0 223 5 481 10 489 6 921 -12 1109 -6 61 -24 221 -40 357
-44 359 -51 434 -59 628 -6 141 -11 182 -26 210 -10 19 -19 45 -21 58 -2 18 3
22 26 22 21 0 36 -9 54 -33z m171 7 c46 -15 85 -44 85 -64 0 -4 -21 -2 -46 6
-25 7 -44 10 -42 6 45 -88 68 -147 73 -192 l6 -55 -46 80 c-26 44 -72 118
-102 164 l-55 84 39 -7 c21 -4 61 -14 88 -22z m-2638 -81 l30 -98 104 -5 104
-5 -50 -33 c-28 -17 -65 -45 -83 -60 l-33 -27 25 -89 c14 -48 28 -92 32 -97
12 -21 -13 -6 -87 51 l-78 59 -86 -65 c-96 -73 -92 -78 -50 65 l22 75 -26 21
c-14 11 -50 39 -79 60 l-53 40 100 3 100 3 33 99 c18 55 35 100 39 100 3 0 19
-44 36 -97z m3427 -477 l18 -34 -50 -109 c-27 -59 -53 -107 -58 -106 -5 2 -10
45 -12 96 -3 89 -2 94 29 140 17 26 36 47 43 47 6 0 20 -15 30 -34z m-378 -93
c-15 -104 -39 -213 -48 -213 -5 0 -7 8 -4 18 2 9 10 51 16 92 14 89 29 150 37
150 3 0 2 -21 -1 -47z m32 -185 c-18 -34 -39 -64 -46 -66 -7 -2 2 20 21 49 19
30 38 65 42 79 5 14 10 20 12 13 3 -7 -11 -40 -29 -75z m226 1 c30 -27 58 -59
61 -70 7 -21 -20 -73 -35 -67 -5 2 -38 31 -74 65 -66 63 -70 75 -43 111 16 21
34 14 91 -39z m-2044 23 c0 -4 -30 -53 -66 -107 -125 -188 -235 -447 -309
-730 -20 -76 -38 -142 -40 -145 -11 -17 -57 -269 -70 -381 -9 -73 -18 -135
-22 -138 -3 -4 -3 64 0 149 6 139 22 281 42 365 18 73 78 287 102 358 14 43
23 80 20 83 -4 5 -31 -66 -98 -264 -23 -67 -43 -121 -45 -119 -6 6 16 179 31
244 19 83 86 249 130 324 56 96 146 208 234 292 80 76 91 85 91 69z m-1516
-104 c3 -17 6 -497 6 -1065 l0 -1034 -45 55 c-110 134 -237 376 -289 547 -75
249 -86 383 -86 1042 l0 487 204 0 204 0 6 -32z m3509 -41 c36 -48 44 -83 22
-107 -16 -18 -19 -18 -51 -3 -19 9 -34 21 -34 26 0 5 -11 22 -25 39 -29 34
-32 73 -9 99 16 18 18 18 44 -1 15 -11 39 -35 53 -53z m-1350 -4 c-7 -2 -21
-2 -30 0 -10 3 -4 5 12 5 17 0 24 -2 18 -5z m1240 -63 c14 -11 40 -39 58 -61
32 -40 32 -41 16 -75 -15 -30 -47 -48 -47 -26 0 4 -13 22 -30 40 -39 43 -50
65 -50 100 0 47 14 53 53 22z m-48 -98 c6 -4 25 -24 43 -45 34 -40 40 -72 19
-102 -13 -17 -15 -17 -46 1 -18 10 -43 38 -57 62 -24 41 -25 45 -10 68 17 24
33 30 51 16z m-1051 -68 c3 -18 10 -126 21 -324 2 -47 7 -159 10 -250 20 -619
32 -830 76 -1315 l20 -230 -100 -101 c-100 -102 -193 -176 -417 -332 -65 -46
-155 -110 -199 -142 -44 -32 -82 -59 -85 -59 -4 -1 -5 14 -3 32 1 17 7 88 13
157 6 69 15 184 20 255 5 72 16 216 25 320 8 105 20 255 25 335 5 80 14 190
20 245 6 55 17 179 25 275 16 190 44 379 76 505 24 96 42 117 190 220 166 116
212 179 250 346 21 89 26 100 33 63z m1001 -133 c15 -23 25 -48 22 -58 -8 -27
-165 -443 -183 -485 -15 -34 -18 -36 -53 -31 -20 3 -40 9 -44 13 -10 8 41 164
126 385 36 94 71 183 76 198 13 33 19 31 56 -22z m-721 -115 c8 -18 20 -75 26
-125 l13 -92 -31 -32 c-17 -18 -33 -48 -37 -69 -4 -21 -11 -38 -15 -38 -10 0
0 244 11 248 5 2 9 35 9 73 0 38 2 69 5 69 3 0 11 -15 19 -34z m1286 -451
c-21 -153 -76 -282 -151 -349 -33 -30 -46 -36 -85 -36 -56 0 -90 17 -136 68
-52 58 -100 205 -97 302 0 23 1 23 9 5 4 -11 13 -53 19 -94 25 -163 134 -271
231 -231 53 22 124 111 154 191 30 82 55 225 58 339 l2 75 4 -90 c2 -49 -2
-130 -8 -180z m-348 -461 c16 -9 28 -18 25 -20 -9 -9 -84 44 -104 73 -38 54
-36 58 7 10 23 -26 56 -55 72 -63z m-1876 -387 c-7 -31 -23 -204 -41 -462 -8
-121 -22 -312 -30 -425 -8 -113 -19 -275 -25 -360 -6 -85 -13 -183 -16 -217
l-5 -61 -89 61 c-89 61 -89 62 -90 105 -1 165 98 867 151 1062 17 63 135 320
147 320 2 0 2 -10 -2 -23z m1276 -363 c4 -27 10 -128 14 -225 l7 -176 -41 -6
c-22 -4 -46 -9 -54 -12 -11 -4 -14 45 -17 267 l-4 273 44 -36 c38 -31 45 -44
51 -85z m-1577 -385 c-24 -113 -78 -285 -96 -303 -17 -18 -21 2 -5 26 30 45
57 137 112 377 3 13 7 21 9 19 3 -2 -6 -56 -20 -119z m1711 -256 c-7 -7 -76
47 -76 59 0 5 18 -5 40 -22 23 -18 39 -35 36 -37z m-440 -301 l17 -173 -24
-25 -24 -26 -6 114 c-3 62 -3 167 0 233 6 146 13 123 37 -123z m-379 40 c6
-70 11 -192 11 -272 -1 -125 -2 -134 -8 -70 -4 41 -8 118 -10 170 -6 240 -30
67 -30 -215 l0 -112 -46 -32 c-25 -18 -48 -31 -51 -27 -6 5 9 271 28 508 9
117 9 117 46 153 20 19 39 33 42 30 3 -4 11 -63 18 -133z m292 58 c5 -36 13
-130 17 -211 l6 -145 -25 -17 c-15 -9 -29 -17 -32 -17 -7 0 -6 387 2 433 8 51
20 36 32 -43z m-643 -277 c-3 -3 -37 12 -76 33 l-72 39 42 35 c23 19 56 50 74
68 l31 34 3 -103 c1 -56 1 -104 -2 -106z"/>
<path d="M4885 10780 c-13 -21 7 -27 81 -24 82 4 94 8 76 26 -8 8 -19 8 -39 1
-37 -14 -83 -15 -83 -3 0 13 -27 13 -35 0z"/>
<path d="M4910 10692 c0 -5 11 -14 24 -20 21 -9 29 -8 48 8 l23 19 -47 1 c-27
0 -48 -4 -48 -8z"/>
<path d="M5025 10045 c-107 -30 -142 -46 -227 -101 -266 -171 -438 -393 -592
-764 -39 -93 -35 -90 58 51 98 150 206 281 370 448 180 183 324 302 423 349
106 50 98 54 -32 17z"/>
<path d="M4702 10039 c-20 -54 -24 -71 -14 -65 13 8 36 75 28 83 -3 3 -9 -5
-14 -18z"/>
<path d="M4420 9690 c-6 -11 -8 -20 -6 -20 3 0 10 9 16 20 6 11 8 20 6 20 -3
0 -10 -9 -16 -20z"/>
<path d="M4376 9614 c-35 -63 -33 -69 5 -11 18 26 29 50 27 53 -3 3 -17 -16
-32 -42z"/>
<path d="M5420 9929 c-30 -28 -88 -75 -128 -106 -40 -30 -78 -67 -84 -82 -5
-14 -30 -93 -53 -176 -24 -82 -55 -182 -68 -221 -14 -39 -28 -91 -32 -115 l-7
-44 20 20 c12 11 47 79 80 150 33 72 100 211 149 311 78 158 105 204 172 295
21 29 11 22 -49 -32z"/>
<path d="M4981 9615 c-34 -57 -86 -159 -116 -227 -109 -251 -185 -437 -243
-598 -100 -272 -257 -858 -327 -1220 -14 -74 -28 -144 -31 -155 -4 -16 -3 -17
5 -5 5 9 24 72 41 140 17 69 49 186 70 260 21 74 52 187 69 250 17 63 64 216
105 341 66 199 89 254 203 480 136 267 162 331 217 531 29 106 76 308 71 308
-1 0 -30 -47 -64 -105z"/>
<path d="M4557 7993 c-2 -4 -8 -24 -12 -43 -4 -19 -33 -120 -65 -225 -32 -104
-93 -312 -134 -461 -41 -148 -80 -283 -86 -300 -10 -25 -9 -27 3 -14 16 18
143 355 182 485 14 50 31 104 36 120 13 42 57 254 74 355 13 78 14 103 2 83z"/>
<path d="M5066 8348 c-15 -54 -69 -295 -80 -358 -24 -147 -80 -741 -106 -1125
-5 -77 -16 -214 -25 -305 -8 -91 -15 -187 -15 -214 l0 -50 31 50 c18 27 67 85
110 130 l79 81 6 219 c7 283 23 1618 19 1622 -2 2 -10 -20 -19 -50z"/>
<path d="M3770 4914 c-14 -3 -66 -19 -117 -35 -175 -58 -303 -167 -378 -324
-69 -145 -88 -268 -62 -413 59 -324 358 -536 717 -507 264 21 475 180 556 420
36 105 44 274 20 380 -51 214 -204 377 -423 451 -72 24 -250 40 -313 28z m226
-146 c81 -44 152 -150 190 -288 26 -93 26 -369 0 -455 -39 -129 -90 -201 -169
-239 -113 -56 -236 -42 -343 37 -69 50 -111 120 -140 232 -26 97 -26 341 -1
435 40 147 95 225 192 272 55 27 67 29 150 25 57 -2 101 -9 121 -19z"/>
<path d="M5215 4905 c-227 -42 -386 -156 -479 -345 -51 -103 -69 -180 -69
-305 0 -189 47 -310 163 -425 107 -105 232 -166 392 -191 145 -23 439 20 559
82 l37 19 4 188 c3 210 5 214 69 234 38 11 39 12 39 60 l0 48 -275 0 -275 0 0
-50 c0 -45 2 -50 23 -51 75 -2 134 -27 142 -62 3 -12 4 -85 3 -162 l-3 -140
-42 -23 c-74 -41 -218 -29 -311 24 -143 83 -200 200 -209 429 -8 208 36 355
136 455 69 69 128 93 237 98 108 5 156 -11 229 -79 51 -47 75 -88 95 -161 l13
-48 58 0 59 0 0 38 c0 20 -5 96 -12 169 l-11 132 -36 -1 c-20 0 -67 11 -106
27 -134 52 -288 67 -430 40z"/>
<path d="M6382 4901 c-106 -31 -209 -114 -254 -206 -43 -85 -48 -234 -12 -310
24 -51 99 -127 155 -156 49 -26 206 -89 221 -89 24 0 160 -71 183 -96 76 -82
39 -217 -74 -267 -53 -23 -147 -27 -206 -7 -95 31 -149 88 -191 204 l-22 61
-43 -3 c-24 -2 -45 -4 -47 -7 -2 -2 0 -72 4 -155 l7 -152 41 -18 c142 -63 384
-85 511 -46 135 41 225 111 273 214 24 50 27 69 27 162 0 94 -3 111 -27 160
-15 30 -42 69 -60 87 -45 43 -144 95 -259 137 -137 49 -181 72 -219 111 -29
30 -34 43 -38 92 -3 48 0 64 20 92 33 49 79 73 151 78 142 12 234 -58 272
-207 13 -48 28 -57 93 -59 l34 -1 -6 88 c-15 204 -18 233 -29 237 -224 61
-259 68 -347 71 -71 3 -111 -1 -158 -15z"/>
<path d="M4327 3283 c-59 -20 -140 -90 -170 -147 -19 -35 -22 -57 -22 -146 0
-90 3 -111 22 -147 30 -55 83 -106 141 -135 42 -20 61 -23 172 -23 105 0 131
3 165 20 l40 20 3 102 c3 103 3 103 32 118 18 9 30 23 30 36 0 19 -6 19 -127
17 -123 -3 -128 -4 -131 -25 -3 -17 5 -25 32 -37 l36 -15 0 -79 c0 -74 -2 -80
-22 -86 -73 -19 -138 3 -190 64 -45 51 -62 118 -56 210 6 75 37 142 84 179 30
23 99 36 144 26 40 -9 97 -66 108 -108 6 -22 15 -33 30 -35 21 -3 22 0 22 86
0 87 -1 89 -27 101 -16 7 -81 15 -148 17 -95 3 -130 1 -168 -13z"/>
<path d="M7270 3281 c-138 -56 -213 -206 -180 -361 34 -159 158 -247 335 -238
65 3 91 10 127 31 212 124 211 449 -2 556 -57 28 -72 31 -149 30 -59 0 -100
-6 -131 -18z m172 -51 c78 -22 128 -119 128 -246 0 -83 -18 -139 -59 -186 -35
-38 -42 -42 -97 -46 -50 -3 -64 0 -94 20 -86 58 -125 223 -81 339 22 59 47 88
96 113 35 19 57 20 107 6z"/>
<path d="M1750 3271 c0 -12 11 -25 28 -33 l27 -13 3 -233 2 -233 -30 -17 c-16
-9 -30 -25 -30 -34 0 -16 13 -18 125 -18 113 0 125 2 125 18 0 9 -10 22 -22
27 -32 14 -35 41 -37 273 l-1 204 30 26 c53 47 43 52 -95 52 -117 0 -125 -1
-125 -19z"/>
<path d="M2120 3270 c0 -11 6 -20 13 -20 8 0 24 -11 37 -25 22 -23 23 -29 16
-127 -17 -265 -27 -342 -47 -360 -10 -9 -19 -23 -19 -32 0 -13 14 -16 80 -16
70 0 80 2 80 18 0 9 -10 23 -22 31 -21 13 -21 16 -14 199 4 102 9 189 13 195
3 5 25 -47 48 -114 40 -118 88 -240 116 -302 7 -15 19 -26 27 -25 14 3 60 119
133 333 17 50 33 97 37 105 11 29 21 -76 21 -227 1 -142 0 -153 -19 -163 -11
-6 -20 -20 -20 -30 0 -19 7 -20 115 -20 109 0 115 1 115 20 0 13 -10 24 -25
30 -14 5 -25 11 -26 12 -8 25 -34 447 -28 458 4 9 19 22 33 30 14 7 26 22 26
32 0 16 -10 18 -102 18 l-103 0 -65 -186 -65 -186 -17 39 c-10 21 -41 104 -70
186 l-53 147 -107 0 c-101 0 -108 -1 -108 -20z"/>
<path d="M2960 3276 c0 -8 12 -23 27 -34 31 -23 31 -17 13 -287 -14 -197 -15
-203 -45 -217 -14 -6 -25 -19 -25 -30 0 -16 9 -18 95 -18 81 0 95 2 95 16 0 9
-11 25 -25 36 -25 19 -25 22 -24 156 1 75 4 161 7 191 l7 54 85 -224 c70 -186
88 -224 104 -224 22 0 24 5 121 268 32 86 61 157 65 157 8 0 20 -175 20 -291
0 -73 -2 -80 -25 -95 -14 -9 -25 -23 -25 -30 0 -11 25 -14 125 -14 105 0 125
2 125 15 0 9 -11 20 -24 26 -13 6 -29 22 -35 35 -6 13 -16 116 -22 229 -11
192 -11 206 6 225 10 11 26 22 36 25 11 4 19 15 19 26 0 19 -6 20 -106 17
l-106 -3 -69 -184 c-37 -101 -70 -185 -72 -187 -2 -2 -33 80 -69 184 l-66 187
-106 3 c-87 2 -106 0 -106 -12z"/>
<path d="M3780 3273 c0 -10 14 -26 30 -35 l30 -17 0 -231 0 -231 -30 -17 c-16
-9 -30 -25 -30 -34 0 -16 13 -18 130 -18 105 0 130 3 130 14 0 8 -16 23 -35
35 l-35 20 0 225 0 225 29 22 c16 12 32 30 34 40 5 18 -3 19 -124 19 -116 0
-129 -2 -129 -17z"/>
<path d="M4840 3271 c0 -11 12 -23 30 -31 l30 -12 0 -239 0 -238 -30 -16 c-16
-9 -30 -22 -30 -30 0 -12 22 -15 125 -15 105 0 125 2 125 15 0 9 -11 20 -24
26 -13 6 -27 21 -30 33 -10 35 -7 203 3 187 5 -8 18 -12 30 -8 17 4 26 -4 48
-41 15 -26 51 -84 81 -129 l53 -83 85 0 c77 0 84 2 84 20 0 11 -6 20 -14 20
-8 0 -29 17 -47 37 -37 42 -139 196 -139 210 0 5 12 16 28 25 51 30 75 65 80
116 6 69 -20 121 -78 150 -41 20 -57 22 -227 22 -172 0 -183 -1 -183 -19z
m287 -52 c50 -19 73 -48 73 -93 -1 -67 -46 -106 -122 -106 l-48 0 0 98 c0 54
3 102 7 105 10 10 58 8 90 -4z"/>
<path d="M5682 3258 c-20 -69 -134 -376 -163 -439 -18 -40 -41 -72 -55 -79
-13 -8 -24 -22 -24 -32 0 -16 10 -18 105 -18 98 0 105 1 105 20 0 11 -6 20
-14 20 -31 0 -39 27 -24 87 l14 58 102 3 103 3 15 -36 c8 -20 17 -50 21 -66 5
-25 2 -31 -16 -36 -14 -3 -21 -13 -21 -29 l0 -24 124 0 c69 0 127 4 130 8 7
11 -5 27 -30 40 -12 6 -33 39 -47 74 -38 92 -141 364 -161 426 l-18 52 -68 0
-69 0 -9 -32z m72 -155 c10 -27 26 -74 36 -105 l18 -58 -78 0 -79 0 36 105
c20 58 39 105 42 105 4 0 15 -21 25 -47z"/>
<path d="M6080 3205 c0 -78 2 -85 20 -85 11 0 26 12 34 28 28 54 54 72 101 72
l45 0 0 -230 0 -230 -25 -16 c-14 -9 -25 -25 -25 -35 0 -18 9 -19 125 -19 117
0 125 1 125 19 0 12 -9 23 -22 27 -13 4 -26 12 -30 18 -4 6 -8 114 -8 240 l0
229 47 -7 c59 -8 89 -28 110 -71 10 -21 24 -35 35 -35 16 0 18 10 18 90 l0 90
-275 0 -275 0 0 -85z"/>
<path d="M6710 3271 c0 -12 11 -21 33 -27 l32 -10 3 -242 2 -243 -30 -10 c-19
-7 -30 -18 -30 -30 0 -18 9 -19 135 -19 122 0 135 2 135 18 0 9 -15 24 -33 32
l-32 15 0 235 0 235 28 13 c16 8 27 21 27 33 0 18 -8 19 -135 19 -125 0 -135
-1 -135 -19z"/>
<path d="M7810 3273 c1 -10 15 -27 33 -38 l32 -20 3 -215 c1 -118 0 -225 -3
-237 -3 -12 -14 -25 -25 -28 -11 -3 -20 -15 -20 -26 0 -17 8 -19 95 -19 78 0
95 3 95 15 0 9 -11 20 -24 24 -13 5 -26 17 -30 26 -3 9 -6 101 -5 203 0 149 3
183 12 169 20 -32 168 -218 261 -330 85 -102 91 -107 128 -107 l38 0 0 258 c0
238 1 260 18 275 10 10 23 17 29 17 11 0 23 22 23 41 0 5 -52 9 -115 9 -63 0
-115 -3 -115 -7 0 -15 16 -30 45 -44 27 -13 31 -20 36 -74 10 -91 10 -267 0
-263 -11 4 -208 242 -270 325 l-46 62 -97 1 c-87 0 -98 -2 -98 -17z"/>
<path d="M3318 2356 c-91 -34 -122 -73 -123 -157 0 -91 43 -135 182 -186 96
-36 123 -60 123 -111 0 -121 -199 -114 -250 9 -9 21 -19 29 -37 29 -24 0 -25
-1 -21 -77 l3 -78 55 -19 c35 -12 84 -20 135 -20 72 -1 86 2 135 30 92 52 126
154 81 243 -24 47 -43 59 -154 101 -85 32 -137 72 -137 104 0 24 41 66 73 74
37 10 94 -2 121 -26 10 -10 27 -34 37 -54 11 -21 24 -38 29 -38 6 0 10 33 10
76 l0 75 -37 16 c-52 22 -178 27 -225 9z"/>
<path d="M6141 2350 c-115 -42 -179 -111 -202 -220 -41 -195 73 -354 274 -383
63 -9 83 -7 157 12 46 11 87 24 91 29 3 4 9 37 13 75 6 65 6 67 -16 67 -15 0
-33 -15 -53 -41 -42 -57 -75 -72 -148 -67 -56 4 -63 8 -103 50 -99 105 -89
321 19 399 43 31 113 39 159 19 26 -12 64 -66 74 -104 4 -17 13 -26 25 -26 17
0 19 8 19 88 l0 89 -75 16 c-98 22 -167 21 -234 -3z"/>
<path d="M3730 2340 c0 -13 9 -22 25 -26 14 -3 30 -14 35 -24 14 -26 13 -436
-1 -461 -5 -11 -21 -24 -35 -29 -13 -5 -24 -16 -24 -25 0 -13 32 -15 245 -15
l245 0 1 33 c0 17 1 51 3 75 2 35 -1 42 -16 42 -9 0 -25 -11 -34 -25 -31 -48
-74 -65 -163 -65 l-81 0 0 110 0 110 54 0 c71 0 104 -13 112 -45 3 -14 12 -25
18 -25 9 0 13 29 15 95 1 55 -2 95 -7 95 -5 0 -22 -16 -36 -35 -26 -34 -30
-35 -92 -35 l-64 0 0 105 0 105 74 0 c93 0 119 -10 148 -54 36 -56 48 -47 48
39 l0 75 -235 0 c-228 0 -235 -1 -235 -20z"/>
<path d="M4340 2342 c0 -13 9 -23 23 -28 12 -4 25 -12 29 -18 4 -6 8 -116 8
-244 l0 -234 -30 -11 c-18 -7 -30 -19 -30 -29 0 -16 12 -18 125 -18 105 0 125
2 125 15 0 9 -11 20 -24 24 -32 13 -36 28 -36 132 0 80 2 89 18 89 25 0 41
-19 97 -115 26 -44 61 -95 78 -112 30 -32 34 -33 109 -33 81 0 99 11 51 33
-16 7 -55 56 -102 127 -42 63 -77 118 -79 121 -2 4 7 9 20 12 13 4 41 24 62
46 34 35 40 48 43 93 5 66 -18 114 -67 143 -31 18 -56 20 -227 24 -189 3 -193
3 -193 -17z m300 -57 c73 -38 80 -157 11 -184 -14 -6 -47 -13 -73 -17 l-48 -6
0 111 0 111 40 0 c23 0 54 -7 70 -15z"/>
<path d="M4900 2342 c0 -11 11 -24 25 -30 32 -15 42 -36 145 -310 l89 -237 40
-3 c26 -2 41 1 41 8 0 6 24 68 54 138 29 70 75 180 102 246 27 65 61 131 77
146 50 52 40 60 -79 60 -104 0 -105 0 -102 -22 2 -15 11 -24 26 -26 13 -2 28
-13 33 -26 10 -21 -3 -64 -92 -304 l-23 -62 -54 152 c-77 216 -76 214 -41 239
16 11 29 27 29 35 0 11 -25 14 -135 14 -124 0 -135 -1 -135 -18z"/>
<path d="M5570 2340 c0 -11 8 -23 18 -27 52 -18 52 -21 52 -259 l0 -223 -30
-21 c-59 -42 -43 -50 100 -50 123 0 130 1 130 20 0 11 -7 20 -15 20 -8 0 -24
9 -35 20 -19 19 -20 33 -20 238 0 234 1 237 53 255 9 4 17 16 17 27 0 19 -6
20 -135 20 -129 0 -135 -1 -135 -20z"/>
<path d="M6573 2340 c1 -13 11 -23 24 -27 13 -3 28 -13 33 -23 6 -11 10 -117
10 -244 l0 -225 -30 -16 c-16 -9 -30 -22 -30 -30 0 -13 35 -15 239 -15 l239 0
1 74 c1 41 -3 77 -8 81 -6 3 -21 -12 -35 -33 -31 -49 -66 -62 -167 -62 l-79 0
0 110 0 110 60 0 c51 0 65 -4 85 -25 14 -13 25 -29 25 -35 0 -5 7 -10 15 -10
12 0 15 17 15 95 0 79 -3 95 -15 95 -9 0 -18 -8 -22 -17 -15 -43 -34 -53 -100
-53 l-63 0 0 105 0 105 64 0 c83 0 121 -14 147 -56 35 -57 49 -45 49 41 l0 75
-229 0 c-225 0 -230 0 -228 -20z"/>
</g>
</svg>
